<?xml version="1.0" encoding="UTF-8"?>
<svg id="Layer_1" data-name="Layer 1" xmlns="http://www.w3.org/2000/svg" xmlns:xlink="http://www.w3.org/1999/xlink" viewBox="0 0 1920 2312.1">
  <defs>
    <style>
      .cls-1 {
        fill: none;
      }

      .cls-1, .cls-2, .cls-3, .cls-4, .cls-5, .cls-6, .cls-7, .cls-8 {
        stroke-width: 0px;
      }

      .cls-2 {
        fill: #253f93;
        opacity: .81;
      }

      .cls-9, .cls-10, .cls-11, .cls-12, .cls-13, .cls-14 {
        stroke: #000;
        stroke-miterlimit: 10;
      }

      .cls-9, .cls-8 {
        fill: #fff;
      }

      .cls-10, .cls-7 {
        fill: #c6bfb8;
      }

      .cls-11 {
        fill: #272361;
      }

      .cls-12 {
        fill: #faaf3b;
      }

      .cls-13, .cls-5 {
        fill: #faaf39;
      }

      .cls-14 {
        fill: #fac929;
      }

      .cls-4 {
        fill: url(#busters_verden_final);
      }

      .cls-6 {
        fill: #1b4581;
      }
    </style>
    <pattern id="busters_verden_final" data-name="busters verden final" x="0" y="0" width="1711.59" height="1188.97" patternTransform="translate(0 1232)" patternUnits="userSpaceOnUse" viewBox="0 0 1711.59 1188.97">
      <g>
        <rect class="cls-1" x="0" width="1711.59" height="1188.97"/>
        <g>
          <g>
            <path class="cls-8" d="m861.36,852.2c1.88-1.4,3.89-3.97,4.29-7.43.55-4.76-1.96-9.78-7.46-14.94-10.95-10.27-78.62-75.89-79.31-76.55l-.28-.25c-2.28-1.9-10.21-7.83-16.7-4.42-4.15,2.18-5.91,7.13-5.22,14.72l1.42,15.64,2.84,61.61c.11,2.35.23,4.69.35,7.04.28,5.51.57,11.2.7,16.77.02,1.04-.11,2.62-.25,4.29-.59,6.92-1.48,17.37,6.54,21,3.39,1.53,6.94,1.41,9.66,1.13,2.87-.29,5.71-.65,8.45-.99,1.25-.16,2.51-.31,3.77-.47,7.51-.91,14.26-2.28,20.63-4.19,3.91-1.17,7.75-2.59,11.51-4.24,14.49-6.34,27.82-16.12,39.05-28.73Zm-93-70.88l-1.72-18.9c-.24-2.68-.04-4.1.13-4.78,1.27.31,3.6,1.59,5.3,2.96,3.62,3.51,68.52,66.43,79.28,76.52,3.33,3.12,4.43,5.42,4.37,6.44-.02.26-.16.45-.27.56l-.45.18-.71.81c-13,14.73-29.03,25.27-46.37,30.48-5.81,1.74-12.01,3-18.95,3.84-1.28.15-2.55.31-3.82.47-2.81.35-5.47.69-8.22.97-1.47.15-3.31.25-4.52-.3-1.05-.47-1.28-4.19-.7-11.04.17-1.95.32-3.79.29-5.37-.13-5.71-.43-11.48-.71-17.05-.12-2.33-.24-4.66-.34-6.99l-2.71-58.78h.14Z"/>
            <g>
              <path class="cls-11" d="m844.85,824.59l1.02.06c-1.06-1.02-2.19-2.11-3.37-3.24.27.76.46,1.36.59,1.8.23.79.94,1.34,1.76,1.39Z"/>
              <path class="cls-11" d="m854.68,833.05c-.9-.85-2.18-2.06-3.77-3.58-1.22,1.05-2.17,1.84-2.83,2.38-.68.55-.91,1.49-.56,2.29l2.1,4.83c.02.05.05.1.08.15.31.57,2.34,4.54-2.4,3.07-3.65-1.13-7.3-3.46-9.09-4.7-.69-.48-1.6-.46-2.27.04l-6.72,5.03s-5.9,4.32-4.32-1.97c.98-3.88,1.95-6.56,2.55-8.05.34-.83.07-1.77-.65-2.3l-4.48-3.29c-.12-.09-.23-.19-.33-.3-.58-.68-2.22-3.02,2.14-3.35,2.98-.22,5.15-.05,6.45.13.86.12,1.69-.35,2.04-1.14l2.53-5.66s.31-.76.83-1.5c-10.71-10.32-23.96-23.14-35.35-34.16l2.19,7.91s1.88,7.07-3.41,3.31c-3.26-2.32-5.41-4.2-6.57-5.3-.65-.61-1.63-.71-2.38-.23l-4.69,2.98c-.13.08-.26.15-.4.19-.84.29-3.62.97-2.34-3.21.87-2.85,1.82-4.82,2.47-5.96.42-.75.29-1.7-.32-2.31l-4.36-4.41s-5.22-5,2-5.12c2.35-.04,4.05-.02,5.28.02-7.66-7.42-12.78-12.39-12.78-12.39,0,0-15.46-12.88-13.74,6.01.77,8.5,1.2,13.17,1.43,15.75l.29,3.15-.29-3.15c.47,10.12.93,20.23,1.4,30.35,1.2-1.14,3.07-1.11,5.94,2.64,3.37,4.41,5.12,6.98,6.03,8.45.64,1.04,1.86,1.56,3.06,1.3l8.31-1.78c.32-.07.64-.08.96-.04,1.4.19,4.91,1.08,2.11,5.28-1.74,2.6-3.05,4.47-3.93,5.69-.76,1.05-.73,2.49.09,3.5l4.89,6.1c.05.07.11.13.17.19.67.7,5.11,5.59-2.25,5.33-5.67-.2-11.8-2.13-14.84-3.21-1.17-.42-2.47-.03-3.24.94l-5.36,6.85c.23,4.68.45,9.36.56,14.05.13,5.59-2.91,18.02,3.35,20.85,2.19.99,4.7.96,7.09.72,4.09-.42,8.06-.96,12.13-1.45,6.69-.81,13.33-2.07,19.79-4.01,19.01-5.71,35.6-17.13,48.68-31.96,0,0,7.84-4.52-3.26-14.94Z"/>
              <path class="cls-14" d="m832.63,822.3c-.35.79-1.18,1.26-2.04,1.14-1.3-.18-3.47-.36-6.45-.13-4.36.33-2.72,2.67-2.14,3.35.1.11.21.21.33.3l4.48,3.29c.72.53.99,1.48.65,2.3-.6,1.48-1.58,4.17-2.55,8.05-1.58,6.29,4.32,1.97,4.32,1.97l6.72-5.03c.67-.5,1.59-.52,2.27-.04,1.78,1.24,5.43,3.57,9.09,4.7,4.74,1.47,2.71-2.5,2.4-3.07-.03-.05-.05-.1-.08-.15l-2.1-4.83c-.35-.8-.12-1.74.56-2.29.66-.53,1.61-1.33,2.83-2.38-1.44-1.38-3.14-3-5.05-4.83l-1.02-.06c-.82-.04-1.53-.6-1.76-1.39-.13-.44-.32-1.04-.59-1.8-2.02-1.95-4.21-4.05-6.51-6.27-.52.75-.83,1.5-.83,1.5l-2.53,5.66Z"/>
              <path class="cls-14" d="m774.94,842.01c3.04,1.08,9.17,3.01,14.84,3.21,7.36.26,2.92-4.63,2.25-5.33-.06-.06-.11-.12-.17-.19l-4.89-6.1c-.81-1.02-.85-2.45-.09-3.5.88-1.22,2.2-3.09,3.93-5.69,2.8-4.19-.71-5.09-2.11-5.28-.32-.04-.64-.03-.96.04l-8.31,1.78c-1.19.26-2.42-.26-3.06-1.3-.9-1.46-2.65-4.04-6.03-8.45-2.87-3.75-4.75-3.78-5.94-2.64.48,10.46.96,20.91,1.45,31.37.15,3.29.32,6.58.49,9.87l5.36-6.85c.77-.98,2.07-1.36,3.24-.94Z"/>
              <path class="cls-14" d="m780.82,773.94l4.36,4.41c.61.61.74,1.56.32,2.31-.64,1.14-1.6,3.11-2.47,5.96-1.28,4.18,1.5,3.5,2.34,3.21.14-.05.27-.11.4-.19l4.69-2.98c.75-.48,1.73-.38,2.38.23,1.16,1.1,3.31,2.98,6.57,5.3,5.28,3.76,3.41-3.31,3.41-3.31l-2.19-7.91c-4.58-4.43-8.85-8.57-12.54-12.14-1.23-.04-2.93-.06-5.28-.02-7.22.13-2,5.12-2,5.12Z"/>
            </g>
          </g>
          <g>
            <path class="cls-8" d="m989.5,404.33c2.38,1.14,5.23.54,6.98-1.43l12.57-14.16s14.19-16.89,16.01,5.09c.94,11.38,1.1,17.79,1.04,21.33-.04,2.51,1.49,4.77,3.85,5.66l16.36,6.17c.62.23,1.2.56,1.71.99,2.22,1.89,7.3,7.34-2.22,11.49-5.89,2.57-10.26,4.34-13.14,5.47-2.49.98-4.03,3.49-3.75,6.16l1.68,16c.02.18.04.35.08.52.38,1.96,2.63,15.37-9.82,6.73-9.59-6.65-18.06-16.81-22.11-22.06-1.56-2.02-4.24-2.81-6.65-1.97l-24.2,8.44s-21.16,7.12-10.76-9.72c6.42-10.4,11.73-17.31,14.85-21.07,1.74-2.1,1.83-5.1.23-7.3l-10-13.71c-.27-.37-.49-.76-.67-1.18-1.05-2.52-3.68-10.83,9.31-7.78,8.87,2.09,15.04,4.6,18.65,6.33Z"/>
            <path class="cls-14" d="m992.05,408.41c1.98.95,4.36.45,5.82-1.19l10.48-11.8s11.83-14.08,13.34,4.25c.78,9.48.92,14.83.87,17.77-.04,2.09,1.25,3.98,3.21,4.72l13.64,5.14c.52.2,1,.47,1.42.83,1.85,1.57,6.08,6.12-1.85,9.57-4.91,2.14-8.55,3.62-10.95,4.56-2.08.82-3.36,2.91-3.12,5.13l1.4,13.33c.02.15.04.29.07.43.32,1.63,2.19,12.81-8.18,5.61-7.99-5.54-15.05-14.01-18.42-18.39-1.3-1.69-3.54-2.34-5.55-1.64l-20.17,7.03s-17.63,5.93-8.97-8.1c5.35-8.67,9.77-14.42,12.38-17.56,1.45-1.75,1.53-4.25.19-6.08l-8.33-11.43c-.22-.31-.41-.63-.56-.98-.88-2.1-3.06-9.03,7.76-6.48,7.39,1.74,12.53,3.83,15.54,5.28Z"/>
          </g>
          <g>
            <path class="cls-8" d="m1257.16,717.44c-4.19-2.75-5.37-8.4-2.62-12.59l22.92-34.96c2.75-4.19,8.4-5.37,12.59-2.62l58.65,38.45c4.05,2.65,5.18,8.1,2.53,12.15l-23.28,35.5c-2.65,4.05-8.1,5.18-12.15,2.53l-58.65-38.45Z"/>
            <path class="cls-9" d="m1268.04,717.99l-7.45-4.88c-1.89-1.24-2.42-3.78-1.18-5.67l22.92-34.96c1.24-1.89,3.78-2.42,5.67-1.18l7.45,4.88-27.41,41.82Z"/>
            <polygon class="cls-9" points="1278.91 725.12 1268.04 717.99 1295.45 676.18 1306.32 683.31 1278.91 725.12"/>
            <polygon class="cls-9" points="1289.78 732.25 1278.91 725.12 1306.32 683.31 1317.2 690.43 1289.78 732.25"/>
            <polygon class="cls-9" points="1300.65 739.38 1289.78 732.25 1317.2 690.43 1328.07 697.56 1300.65 739.38"/>
            <polygon class="cls-9" points="1311.53 746.5 1300.65 739.38 1328.07 697.56 1338.94 704.69 1311.53 746.5"/>
            <path class="cls-9" d="m1319.24,751.56l-7.72-5.06,27.41-41.82,7.72,5.06c1.74,1.14,2.23,3.48,1.09,5.23l-23.28,35.5c-1.14,1.74-3.48,2.23-5.23,1.09Z"/>
            <polygon class="cls-3" points="1284.95 698.59 1279.09 694.75 1292.8 673.84 1298.65 677.68 1284.95 698.59"/>
            <polygon class="cls-3" points="1295.82 705.71 1289.96 701.88 1303.67 680.97 1309.52 684.81 1295.82 705.71"/>
            <polygon class="cls-3" points="1306.69 712.84 1300.84 709 1314.54 688.1 1320.4 691.93 1306.69 712.84"/>
            <polygon class="cls-3" points="1317.56 719.97 1311.71 716.13 1325.41 695.22 1331.27 699.06 1317.56 719.97"/>
            <polygon class="cls-3" points="1328.43 727.1 1322.58 723.26 1336.29 702.35 1342.14 706.19 1328.43 727.1"/>
          </g>
          <g>
            <path class="cls-8" d="m657.13,190.35c-5,.33-9.34-3.48-9.67-8.48l-2.74-41.72c-.33-5,3.48-9.34,8.48-9.67l69.98-4.59c4.83-.32,9.01,3.35,9.33,8.18l2.78,42.36c.32,4.83-3.35,9.01-8.18,9.33l-69.98,4.59Z"/>
            <path class="cls-9" d="m666.16,184.25l-8.89.58c-2.26.15-4.21-1.56-4.35-3.82l-2.74-41.72c-.15-2.26,1.56-4.21,3.82-4.35l8.89-.58,3.27,49.89Z"/>
            <polygon class="cls-9" points="679.13 183.4 666.16 184.25 662.89 134.35 675.86 133.5 679.13 183.4"/>
            <polygon class="cls-9" points="692.1 182.54 679.13 183.4 675.86 133.5 688.83 132.65 692.1 182.54"/>
            <polygon class="cls-9" points="705.07 181.69 692.1 182.54 688.83 132.65 701.8 131.8 705.07 181.69"/>
            <polygon class="cls-9" points="718.05 180.84 705.07 181.69 701.8 131.8 714.77 130.95 718.05 180.84"/>
            <path class="cls-9" d="m727.25,180.24l-9.21.6-3.27-49.89,9.21-.6c2.08-.14,3.88,1.44,4.01,3.52l2.78,42.36c.14,2.08-1.44,3.88-3.52,4.01Z"/>
            <polygon class="cls-3" points="667.98 158.57 661 159.03 659.36 134.08 666.35 133.63 667.98 158.57"/>
            <polygon class="cls-3" points="680.95 157.72 673.97 158.18 672.33 133.23 679.32 132.77 680.95 157.72"/>
            <polygon class="cls-3" points="693.93 156.87 686.94 157.33 685.3 132.38 692.29 131.92 693.93 156.87"/>
            <polygon class="cls-3" points="706.9 156.02 699.91 156.48 698.28 131.53 705.26 131.07 706.9 156.02"/>
            <polygon class="cls-3" points="719.87 155.17 712.89 155.63 711.25 130.68 718.23 130.22 719.87 155.17"/>
          </g>
          <g>
            <path class="cls-7" d="m496.49,1043.63c-6.14-15.88-17.67-33.11-32.6-14.78-22,27-20,51-16,60s12,18,23,17c25.52-2.32,35.02-27.93,29.25-50.8-.83-3.29-2.06-7.31-3.65-11.42Z"/>
            <path class="cls-8" d="m468.62,1110.97c-10.64,0-20.32-7.5-25.9-20.05-4.77-10.74-6.63-36.56,16.69-65.19,5.26-6.46,10.85-9.74,16.59-9.74,12.03,0,19.99,14.07,24.55,25.87,1.91,4.94,3.14,9.26,3.83,12,3.81,15.11,1.45,30.68-6.33,41.65-6.37,8.99-15.82,14.3-27.32,15.35-.71.06-1.42.1-2.12.1h0Z"/>
            <path class="cls-10" d="m495.89,1043.68c-6.14-15.88-17.67-33.11-32.6-14.78-22,27-20,51-16,60s12,18,23,17c25.52-2.32,35.02-27.93,29.25-50.8-.83-3.29-2.06-7.31-3.65-11.42Z"/>
          </g>
          <g>
            <path class="cls-7" d="m1686.49,482.63c-6.14-15.88-17.67-33.11-32.6-14.78-22,27-20,51-16,60,4,9,12,18,23,17,25.52-2.32,35.02-27.93,29.25-50.8-.83-3.29-2.06-7.31-3.65-11.42Z"/>
            <path class="cls-8" d="m1658.62,549.97c-10.64,0-20.32-7.5-25.9-20.05-4.77-10.74-6.63-36.56,16.69-65.19,5.26-6.46,10.85-9.74,16.59-9.74,12.03,0,19.99,14.07,24.55,25.87,1.91,4.94,3.14,9.26,3.83,12,3.81,15.11,1.45,30.68-6.33,41.65-6.37,8.99-15.82,14.3-27.32,15.35-.71.06-1.42.1-2.12.1h0Z"/>
            <path class="cls-10" d="m1685.89,482.68c-6.14-15.88-17.67-33.11-32.6-14.78-22,27-20,51-16,60,4,9,12,18,23,17,25.52-2.32,35.02-27.93,29.25-50.8-.83-3.29-2.06-7.31-3.65-11.42Z"/>
          </g>
          <g>
            <path class="cls-5" d="m1168.07,1045.35c-27.21,5.73-42.87,30.41-40.82,56.95-3.59,50.01,99.13,44.29,54.7,21.33-26.8-12.63-23.8-52.43-4.13-70.37,9.53-8.09-3.7-9.8-9.76-7.91Z"/>
            <path class="cls-8" d="m1176.53,1145.68c-13.31,0-33-4.46-44.68-17-6.79-7.3-9.91-16.16-9.27-26.33-1.01-14.15,2.65-28.04,10.34-39.14,8.15-11.78,19.99-19.62,34.25-22.68,1.87-.55,4.15-.85,6.44-.85,6.49,0,11.03,2.24,12.47,6.16.93,2.53.88,6.52-4.59,11.21-9.89,9.07-15.33,25.15-13.22,39.14,1.13,7.53,4.86,17.62,16.17,22.95l.16.08c3.9,2.01,15.75,8.14,13.63,16.86-1.48,6.1-9.39,9.6-21.68,9.6h0Z"/>
            <path class="cls-13" d="m1168.4,1045.38c-27.21,5.73-42.87,30.41-40.82,56.95-3.59,50.01,99.13,44.29,54.7,21.33-26.8-12.63-23.8-52.43-4.13-70.37,9.53-8.09-3.7-9.8-9.76-7.91Z"/>
          </g>
          <g>
            <path class="cls-8" d="m1767.13,959.61c-.92-.44-1.92-.68-2.94-.73l-17.08-.9c-2.51-.13-4.66-1.82-5.38-4.23-1.01-3.39-3.11-9.45-7.46-20.01-8.4-20.4-16.8,0-16.8,0l-7.07,15.91c-1.42,3.2-4.75,5.1-8.23,4.69-4.05-.48-10.21-.82-18.3-.2-12.72.98-8.69,7.54-6.76,9.93.42.52.91.98,1.45,1.38l13.48,9.88c2.2,1.61,3.02,4.5,2,7.03-1.83,4.54-4.8,12.73-7.76,24.59-4.8,19.2,13.2,6,13.2,6l20.5-15.38c2.04-1.53,4.84-1.6,6.94-.14,2.17,1.5,5.23,3.53,8.84,5.64.86.5,1.96.33,2.59-.43,4.25-5.14,10.08-8.64,16.52-11.36,1.04-.44,1.52-1.66,1.06-2.7h0c-1.43-3.28-.52-7.11,2.25-9.38,2.35-1.93,5.58-4.65,9.69-8.24,7.25-6.35,2.18-9.95-.74-11.34Z"/>
            <path class="cls-12" d="m1753.43,991.89l-3.09-7.07c-.89-2.04-.31-4.43,1.42-5.84,2-1.62,5.02-4.14,9.05-7.66,6.51-5.7,1.1-8.74-1.14-9.68-.51-.21-1.05-.33-1.61-.36l-14.55-.77c-2.09-.11-3.89-1.52-4.48-3.52-.84-2.82-2.59-7.87-6.21-16.67-7-17-14,0-14,0l-6.41,14.42c-.89,2.01-3.01,3.21-5.18,2.9-3.3-.46-8.84-.9-16.41-.32-11.09.85-6.9,6.8-5.43,8.53.25.29.52.54.83.77l11.4,8.36c1.83,1.34,2.51,3.75,1.66,5.85-1.53,3.78-4,10.61-6.47,20.49-4,16,11,5,11,5l17.09-12.81c1.7-1.28,4.03-1.33,5.78-.12,2.85,1.97,7.57,5.04,12.99,7.76,3.76-3.98,8.53-6.92,13.76-9.26Z"/>
            <path class="cls-8" d="m1755.49,990.86c.41-.52.23-1.3-.35-1.61-.98-.52-1.98-1.05-3.01-1.56-4.19-2.09-8.78-4.05-13.35-5.38-14.42-4.22-8.28,7.55-7.21,9.45l.28.56,3.52,7.75,1.17,2.57c.24.54.87.78,1.41.56,6.9-2.92,13.16-6.69,17.55-12.32Z"/>
            <path class="cls-12" d="m1737.93,996.96l2.35,5.18c5.2-2.42,9.93-5.42,13.64-9.45-3.24-1.57-6.72-3.01-10.2-4.03-12.12-3.55-6.81,6.46-5.99,7.91.07.13.14.26.2.39Z"/>
          </g>
          <g>
            <path class="cls-8" d="m416.13,607.61c-.92-.44-1.92-.68-2.94-.73l-17.08-.9c-2.51-.13-4.66-1.82-5.38-4.23-1.01-3.39-3.11-9.45-7.46-20.01-8.4-20.4-16.8,0-16.8,0l-7.07,15.91c-1.42,3.2-4.75,5.1-8.23,4.69-4.05-.48-10.21-.82-18.3-.2-12.72.98-8.69,7.54-6.76,9.93.42.52.91.98,1.45,1.38l13.48,9.88c2.2,1.61,3.02,4.5,2,7.03-1.83,4.54-4.8,12.73-7.76,24.59-4.8,19.2,13.2,6,13.2,6l20.5-15.38c2.04-1.53,4.84-1.6,6.94-.14,2.17,1.5,5.23,3.53,8.84,5.64.86.5,1.96.33,2.59-.43,4.25-5.14,10.08-8.64,16.52-11.36,1.04-.44,1.52-1.66,1.06-2.7h0c-1.43-3.28-.52-7.11,2.25-9.38,2.35-1.93,5.58-4.65,9.69-8.24,7.25-6.35,2.18-9.95-.74-11.34Z"/>
            <path class="cls-12" d="m402.43,639.89l-3.09-7.07c-.89-2.04-.31-4.43,1.42-5.84,2-1.62,5.02-4.14,9.05-7.66,6.51-5.7,1.1-8.74-1.14-9.68-.51-.21-1.05-.33-1.61-.36l-14.55-.77c-2.09-.11-3.89-1.52-4.48-3.52-.84-2.82-2.59-7.87-6.21-16.67-7-17-14,0-14,0l-6.41,14.42c-.89,2.01-3.01,3.21-5.18,2.9-3.3-.46-8.84-.9-16.41-.32-11.09.85-6.9,6.8-5.43,8.53.25.29.52.54.83.77l11.4,8.36c1.83,1.34,2.51,3.75,1.66,5.85-1.53,3.78-4,10.61-6.47,20.49-4,16,11,5,11,5l17.09-12.81c1.7-1.28,4.03-1.33,5.78-.12,2.85,1.97,7.57,5.04,12.99,7.76,3.76-3.98,8.53-6.92,13.76-9.26Z"/>
            <path class="cls-8" d="m404.49,638.86c.41-.52.23-1.3-.35-1.61-.98-.52-1.98-1.05-3.01-1.56-4.19-2.09-8.78-4.05-13.35-5.38-14.42-4.22-8.28,7.55-7.21,9.45l.28.56,3.52,7.75,1.17,2.57c.24.54.87.78,1.41.56,6.9-2.92,13.16-6.69,17.55-12.32Z"/>
            <path class="cls-12" d="m386.93,644.96l2.35,5.18c5.2-2.42,9.93-5.42,13.64-9.45-3.24-1.57-6.72-3.01-10.2-4.03-12.12-3.55-6.81,6.46-5.99,7.91.07.13.14.26.2.39Z"/>
          </g>
          <g>
            <path class="cls-5" d="m202.26,104.19c-22.47,16.38-26.64,45.3-13.9,68.68,17.21,47.09,108.57-.21,58.64-2.96-29.62-.54-43.19-38.08-32.6-62.5,5.38-11.29-7.39-7.43-12.14-3.22Z"/>
            <path class="cls-8" d="m251.09,192.24c-12.14,5.45-31.93,9.46-47.73,2.8-9.19-3.88-15.66-10.68-19.24-20.22-6.72-12.49-9.07-26.66-6.61-39.94,2.61-14.09,10.2-26.09,21.95-34.72,1.48-1.27,3.43-2.48,5.52-3.42,5.92-2.66,10.98-2.47,13.9.51,1.88,1.93,3.48,5.59.4,12.1-5.31,12.32-3.68,29.22,3.98,41.12,4.12,6.4,11.65,14.08,24.15,14.31h.18c4.38.25,17.71.98,19.35,9.8,1.15,6.17-4.63,12.6-15.85,17.64h0Z"/>
            <path class="cls-13" d="m202.58,104.07c-22.47,16.38-26.64,45.3-13.9,68.68,17.21,47.09,108.57-.21,58.64-2.96-29.62-.54-43.19-38.08-32.6-62.5,5.38-11.29-7.39-7.43-12.14-3.22Z"/>
          </g>
          <g>
            <path class="cls-8" d="m1492.66,236.82c1.88-1.4,3.89-3.97,4.29-7.43.55-4.76-1.96-9.78-7.46-14.94-10.95-10.27-78.62-75.89-79.31-76.55l-.28-.25c-2.28-1.9-10.21-7.83-16.7-4.42-4.15,2.18-5.91,7.13-5.22,14.72l1.42,15.64,2.84,61.61c.11,2.35.23,4.69.35,7.04.28,5.51.57,11.2.7,16.77.02,1.04-.11,2.62-.25,4.29-.59,6.92-1.48,17.37,6.54,21,3.39,1.53,6.94,1.41,9.66,1.13,2.87-.29,5.71-.65,8.45-.99,1.25-.16,2.51-.31,3.77-.47,7.51-.91,14.26-2.28,20.63-4.19,3.91-1.17,7.75-2.59,11.51-4.24,14.49-6.34,27.82-16.12,39.05-28.73Zm-93-70.88l-1.72-18.9c-.24-2.68-.04-4.1.13-4.78,1.27.31,3.6,1.59,5.3,2.96,3.62,3.51,68.52,66.43,79.28,76.52,3.33,3.12,4.43,5.42,4.37,6.44-.02.26-.16.45-.27.56l-.45.18-.71.81c-13,14.73-29.03,25.27-46.37,30.48-5.81,1.74-12.01,3-18.95,3.84-1.28.15-2.55.31-3.82.47-2.81.35-5.47.69-8.22.97-1.47.15-3.31.25-4.52-.3-1.05-.47-1.28-4.19-.7-11.04.17-1.95.32-3.79.29-5.37-.13-5.71-.43-11.48-.71-17.05-.12-2.33-.24-4.66-.34-6.99l-2.71-58.78h.14Z"/>
            <g>
              <path class="cls-11" d="m1476.14,209.21l1.02.06c-1.06-1.02-2.19-2.11-3.37-3.24.27.76.46,1.36.59,1.8.23.79.94,1.34,1.76,1.39Z"/>
              <path class="cls-11" d="m1485.98,217.67c-.9-.85-2.18-2.06-3.77-3.58-1.22,1.05-2.17,1.84-2.83,2.38-.68.55-.91,1.49-.56,2.29l2.1,4.83c.02.05.05.1.08.15.31.57,2.34,4.54-2.4,3.07-3.65-1.13-7.3-3.46-9.09-4.7-.69-.48-1.6-.46-2.27.04l-6.72,5.03s-5.9,4.32-4.32-1.97c.98-3.88,1.95-6.56,2.55-8.05.34-.83.07-1.77-.65-2.3l-4.48-3.29c-.12-.09-.23-.19-.33-.3-.58-.68-2.22-3.02,2.14-3.35,2.98-.22,5.15-.05,6.45.13.86.12,1.69-.35,2.04-1.14l2.53-5.66s.31-.76.83-1.5c-10.71-10.32-23.96-23.14-35.35-34.16l2.19,7.91s1.88,7.07-3.41,3.31c-3.26-2.32-5.41-4.2-6.57-5.3-.65-.61-1.63-.71-2.38-.23l-4.69,2.98c-.13.08-.26.15-.4.19-.84.29-3.62.97-2.34-3.21.87-2.85,1.82-4.82,2.47-5.96.42-.75.29-1.7-.32-2.31l-4.36-4.41s-5.22-5,2-5.12c2.35-.04,4.05-.02,5.28.02-7.66-7.42-12.78-12.39-12.78-12.39,0,0-15.46-12.88-13.74,6.01.77,8.5,1.2,13.17,1.43,15.75.29,3.14.29,3.15.29,3.15,0,0,0,0-.29-3.15.47,10.12.93,20.23,1.4,30.35,1.2-1.14,3.07-1.11,5.94,2.64,3.37,4.41,5.12,6.98,6.03,8.45.64,1.04,1.86,1.56,3.06,1.3l8.31-1.78c.32-.07.64-.08.96-.04,1.4.19,4.91,1.08,2.11,5.28-1.74,2.6-3.05,4.47-3.93,5.69-.76,1.05-.73,2.49.09,3.5l4.89,6.1c.05.07.11.13.17.19.67.7,5.11,5.59-2.25,5.33-5.67-.2-11.8-2.13-14.84-3.21-1.17-.42-2.47-.03-3.24.94l-5.36,6.85c.23,4.68.45,9.36.56,14.05.13,5.59-2.91,18.02,3.35,20.85,2.19.99,4.7.96,7.09.72,4.09-.42,8.06-.96,12.13-1.45,6.69-.81,13.33-2.07,19.79-4.01,19.01-5.71,35.6-17.13,48.68-31.96,0,0,7.84-4.52-3.26-14.94Z"/>
              <path class="cls-14" d="m1463.92,206.92c-.35.79-1.18,1.26-2.04,1.14-1.3-.18-3.47-.36-6.45-.13-4.36.33-2.72,2.67-2.14,3.35.1.11.21.21.33.3l4.48,3.29c.72.53.99,1.48.65,2.3-.6,1.48-1.58,4.17-2.55,8.05-1.58,6.29,4.32,1.97,4.32,1.97l6.72-5.03c.67-.5,1.59-.52,2.27-.04,1.78,1.24,5.43,3.57,9.09,4.7,4.74,1.47,2.71-2.5,2.4-3.07-.03-.05-.05-.1-.08-.15l-2.1-4.83c-.35-.8-.12-1.74.56-2.29.66-.53,1.61-1.33,2.83-2.38-1.44-1.38-3.14-3-5.05-4.83l-1.02-.06c-.82-.04-1.53-.6-1.76-1.39-.13-.44-.32-1.04-.59-1.8-2.02-1.95-4.21-4.05-6.51-6.27-.52.75-.83,1.5-.83,1.5l-2.53,5.66Z"/>
              <path class="cls-14" d="m1406.24,226.63c3.04,1.08,9.17,3.01,14.84,3.21,7.36.26,2.92-4.63,2.25-5.33-.06-.06-.11-.12-.17-.19l-4.89-6.1c-.81-1.02-.85-2.45-.09-3.5.88-1.22,2.2-3.09,3.93-5.69,2.8-4.19-.71-5.09-2.11-5.28-.32-.04-.64-.03-.96.04l-8.31,1.78c-1.19.26-2.42-.26-3.06-1.3-.9-1.46-2.65-4.04-6.03-8.45-2.87-3.75-4.75-3.78-5.94-2.64.48,10.46.96,20.91,1.45,31.37.15,3.29.32,6.58.49,9.87l5.36-6.85c.77-.98,2.07-1.36,3.24-.94Z"/>
              <path class="cls-14" d="m1412.12,158.56l4.36,4.41c.61.61.74,1.56.32,2.31-.64,1.14-1.6,3.11-2.47,5.96-1.28,4.18,1.5,3.5,2.34,3.21.14-.05.27-.11.4-.19l4.69-2.98c.75-.48,1.73-.38,2.38.23,1.16,1.1,3.31,2.98,6.57,5.3,5.28,3.76,3.41-3.31,3.41-3.31l-2.19-7.91c-4.58-4.43-8.85-8.57-12.54-12.14-1.23-.04-2.93-.06-5.28-.02-7.22.13-2,5.12-2,5.12Z"/>
            </g>
          </g>
        </g>
        <g>
          <path class="cls-8" d="m55.54,959.61c-.92-.44-1.92-.68-2.94-.73l-17.08-.9c-2.51-.13-4.66-1.82-5.38-4.23-1.01-3.39-3.11-9.45-7.46-20.01-8.4-20.4-16.8,0-16.8,0l-7.07,15.91c-1.42,3.2-4.75,5.1-8.23,4.69-4.05-.48-10.21-.82-18.3-.2-12.72.98-8.69,7.54-6.76,9.93.42.52.91.98,1.45,1.38l13.48,9.88c2.2,1.61,3.02,4.5,2,7.03-1.83,4.54-4.8,12.73-7.76,24.59-4.8,19.2,13.2,6,13.2,6l20.5-15.38c2.04-1.53,4.84-1.6,6.94-.14,2.17,1.5,5.23,3.53,8.84,5.64.86.5,1.96.33,2.59-.43,4.25-5.14,10.08-8.64,16.52-11.36,1.04-.44,1.52-1.66,1.06-2.7h0c-1.43-3.28-.52-7.11,2.25-9.38,2.35-1.93,5.58-4.65,9.69-8.24,7.25-6.35,2.18-9.95-.74-11.34Z"/>
          <path class="cls-12" d="m41.84,991.89l-3.09-7.07c-.89-2.04-.31-4.43,1.42-5.84,2-1.62,5.02-4.14,9.05-7.66,6.51-5.7,1.1-8.74-1.14-9.68-.51-.21-1.05-.33-1.61-.36l-14.55-.77c-2.09-.11-3.89-1.52-4.48-3.52-.84-2.82-2.59-7.87-6.21-16.67-7-17-14,0-14,0l-6.41,14.42c-.89,2.01-3.01,3.21-5.18,2.9-3.3-.46-8.84-.9-16.41-.32-11.09.85-6.9,6.8-5.43,8.53.25.29.52.54.83.77l11.4,8.36c1.83,1.34,2.51,3.75,1.66,5.85-1.53,3.78-4,10.61-6.47,20.49-4,16,11,5,11,5l17.09-12.81c1.7-1.28,4.03-1.33,5.78-.12,2.85,1.97,7.57,5.04,12.99,7.76,3.76-3.98,8.53-6.92,13.76-9.26Z"/>
          <path class="cls-8" d="m43.9,990.86c.41-.52.23-1.3-.35-1.61-.98-.52-1.98-1.05-3.01-1.56-4.19-2.09-8.78-4.05-13.35-5.38-14.42-4.22-8.28,7.55-7.21,9.45l.28.56,3.52,7.75,1.17,2.57c.24.54.87.78,1.41.56,6.9-2.92,13.16-6.69,17.55-12.32Z"/>
          <path class="cls-12" d="m26.34,996.96l2.35,5.18c5.2-2.42,9.93-5.42,13.64-9.45-3.24-1.57-6.72-3.01-10.2-4.03-12.12-3.55-6.81,6.46-5.99,7.91.07.13.14.26.2.39Z"/>
        </g>
      </g>
    </pattern>
  </defs>
  <rect class="cls-6" width="1920" height="2311.38"/>
  <rect class="cls-4" y="0" width="1920" height="2312.1"/>
  <g>
    <path class="cls-8" d="m1176.49,2069.73c-.86-.16-1.79-.25-2.74-.27l-15.89-.33c-2.34-.05-4.34-.66-5.01-1.54-.94-1.23-2.89-3.44-6.94-7.29-7.82-7.44-15.64,0-15.64,0l-6.58,5.8c-1.32,1.17-4.42,1.86-7.66,1.71-3.77-.17-9.5-.3-17.03-.07-11.83.36-8.09,2.75-6.3,3.62.39.19.85.36,1.35.5l12.54,3.6c2.04.59,2.81,1.64,1.86,2.56-1.71,1.65-4.47,4.64-7.22,8.96-4.47,7,12.29,2.19,12.29,2.19l19.08-5.61c1.9-.56,4.5-.58,6.46-.05,2.02.55,4.87,1.29,8.23,2.06.8.18,1.83.12,2.41-.16,3.95-1.87,9.39-3.15,15.37-4.14.97-.16,1.41-.6.99-.98h0c-1.34-1.2-.48-2.59,2.09-3.42,2.19-.7,5.19-1.69,9.02-3.01,6.75-2.31,2.03-3.63-.69-4.13Z"/>
    <path class="cls-12" d="m1163.74,2081.5l-2.88-2.58c-.83-.75-.29-1.61,1.32-2.13,1.86-.59,4.67-1.51,8.42-2.79,6.06-2.08,1.02-3.19-1.06-3.53-.47-.08-.98-.12-1.49-.13l-13.55-.28c-1.95-.04-3.62-.55-4.17-1.28-.78-1.03-2.41-2.87-5.78-6.08-6.51-6.2-13.03,0-13.03,0l-5.96,5.26c-.83.73-2.8,1.17-4.82,1.06-3.07-.17-8.23-.33-15.27-.12-10.32.31-6.42,2.48-5.05,3.11.23.11.49.2.77.28l10.61,3.05c1.7.49,2.34,1.37,1.55,2.13-1.42,1.38-3.72,3.87-6.02,7.47-3.72,5.83,10.24,1.82,10.24,1.82l15.9-4.67c1.58-.47,3.75-.49,5.38-.04,2.65.72,7.05,1.84,12.09,2.83,3.5-1.45,7.94-2.52,12.81-3.38Z"/>
    <path class="cls-8" d="m1165.66,2081.13c.38-.19.22-.47-.33-.59-.91-.19-1.84-.38-2.8-.57-3.9-.76-8.17-1.47-12.42-1.96-13.42-1.54-7.7,2.75-6.71,3.44l.27.2,3.27,2.82,1.09.94c.23.2.81.29,1.32.2,6.42-1.07,12.24-2.44,16.33-4.49Z"/>
    <path class="cls-12" d="m1149.32,2083.35l2.19,1.89c4.84-.88,9.24-1.97,12.69-3.45-3.01-.57-6.25-1.1-9.49-1.47-11.28-1.29-6.34,2.36-5.57,2.88.07.05.13.09.19.14Z"/>
  </g>
  <rect class="cls-2" y="22" width="1920" height="2290"/>
</svg>